# xmcd
#
# Track frame offsets: 
#        150
#        15157
#        35260
#        48934
#        67837
#        81508
#        107946
#        132730
#        145962
#
# Disc length: 2344 seconds
#
# Revision: 2
# Processed by: cddbd v1.5.2PL0 Copyright (c) Steve Scherf et al.
# Submitted via: ExactAudioCopy v1.0b3
#
DISCID=76092609
DTITLE=Eddie Harris - Silver Cycles
DYEAR=1969
DGENRE=Jazz
TTITLE0=Free At Last
TTITLE1=1974 Blues
TTITLE2=Smoke Signals
TTITLE3=Coltrane's View
TTITLE4=I'm Gonna Leave You By Yourself
TTITLE5=Silver Cycles
TTITLE6=Little Bit
TTITLE7=Electric Ballad
TTITLE8=Infrapolations
EXTD=
EXTT0=
EXTT1=
EXTT2=
EXTT3=
EXTT4=
EXTT5=
EXTT6=
EXTT7=
EXTT8=
PLAYORDER=
